<?xml version="1.0" standalone="no"?>
<!DOCTYPE svg PUBLIC "-//W3C//DTD SVG 20010904//EN"
 "http://www.w3.org/TR/2001/REC-SVG-20010904/DTD/svg10.dtd">
<svg version="1.0" xmlns="http://www.w3.org/2000/svg"
 width="1024.000000pt" height="36.000000pt" viewBox="0 0 1024.000000 36.000000"
 preserveAspectRatio="xMidYMid meet">

<g transform="translate(0.000000,36.000000) scale(0.100000,-0.100000)"
fill="#000000" stroke="none">
<path d="M132 259 c2 -13 -5 -26 -17 -33 -11 -6 -22 -12 -25 -14 -2 -2 2 -7
10 -13 13 -8 13 -10 0 -19 -13 -9 -13 -11 0 -21 11 -8 12 -12 3 -16 -18 -7
-16 -33 1 -33 8 0 28 -8 45 -17 30 -17 32 -17 62 -1 17 10 37 18 45 18 17 0
19 26 2 33 -10 4 -9 8 2 16 13 10 13 12 0 21 -13 9 -13 11 0 19 8 6 12 11 10
13 -3 2 -14 8 -25 14 -11 6 -20 17 -20 25 0 15 -12 19 -34 11 -7 -3 -22 0 -32
6 -26 17 -31 15 -27 -9z"/>
</g>
</svg>
