<?xml version="1.0" standalone="no"?>
<!DOCTYPE svg PUBLIC "-//W3C//DTD SVG 20010904//EN"
 "http://www.w3.org/TR/2001/REC-SVG-20010904/DTD/svg10.dtd">
<svg version="1.0" xmlns="http://www.w3.org/2000/svg"
 width="1024.000000pt" height="32.000000pt" viewBox="0 0 1024.000000 32.000000"
 preserveAspectRatio="xMidYMid meet">

<g transform="translate(0.000000,32.000000) scale(0.100000,-0.100000)"
fill="#000000" stroke="none">
<path d="M84 226 c-3 -7 -4 -42 -2 -77 l3 -64 75 0 75 0 3 69 c3 71 -10 105
-28 76 -7 -10 -10 -11 -10 -2 0 7 -15 12 -39 12 -22 0 -42 -5 -44 -12 -4 -10
-6 -10 -6 0 -1 16 -20 15 -27 -2z m146 -81 l0 -45 -70 0 -70 0 0 45 0 45 70 0
70 0 0 -45z"/>
</g>
</svg>
