<?xml version="1.0" standalone="no"?>
<!DOCTYPE svg PUBLIC "-//W3C//DTD SVG 20010904//EN"
 "http://www.w3.org/TR/2001/REC-SVG-20010904/DTD/svg10.dtd">
<svg version="1.0" xmlns="http://www.w3.org/2000/svg"
 width="1024.000000pt" height="36.000000pt" viewBox="0 0 1024.000000 36.000000"
 preserveAspectRatio="xMidYMid meet">

<g transform="translate(0.000000,36.000000) scale(0.100000,-0.100000)"
fill="#000000" stroke="none">
<path d="M94 267 c-3 -8 -4 -47 -2 -88 l3 -74 63 -3 c43 -2 62 1 62 9 0 7 8 5
20 -6 20 -18 20 -17 20 78 l0 97 -80 0 c-58 0 -82 -4 -86 -13z m131 -49 c3 -7
6 -24 7 -38 3 -23 0 -24 -51 -25 -59 0 -71 11 -53 51 10 20 19 24 52 24 23 0
43 -5 45 -12z"/>
<path d="M190 184 c0 -8 5 -12 10 -9 6 4 8 11 5 16 -9 14 -15 11 -15 -7z"/>
</g>
</svg>
