<?xml version="1.0" standalone="no"?>
<!DOCTYPE svg PUBLIC "-//W3C//DTD SVG 20010904//EN"
 "http://www.w3.org/TR/2001/REC-SVG-20010904/DTD/svg10.dtd">
<svg version="1.0" xmlns="http://www.w3.org/2000/svg"
 width="1024.000000pt" height="36.000000pt" viewBox="0 0 1024.000000 36.000000"
 preserveAspectRatio="xMidYMid meet">

<g transform="translate(0.000000,36.000000) scale(0.100000,-0.100000)"
fill="#000000" stroke="none">
<path d="M129 265 c-56 -30 -63 -125 -12 -164 14 -12 30 -18 36 -14 6 4 2 9
-10 14 -11 4 -23 16 -27 26 -6 14 -5 16 5 6 7 -7 20 -13 29 -13 11 0 8 5 -8
18 -19 15 -23 26 -20 57 l4 38 54 0 55 0 3 -41 c3 -33 -1 -43 -17 -52 -21 -11
-28 -44 -12 -54 17 -11 60 35 67 70 16 89 -68 152 -147 109z"/>
</g>
</svg>
