<?xml version="1.0" encoding="UTF-8"?>
<svg xmlns="http://www.w3.org/2000/svg" xmlns:xlink="http://www.w3.org/1999/xlink" viewBox="0 0 20 20" width="20px" height="20px">
<g id="surface49048250">
<path style=" stroke:none;fill-rule:nonzero;fill:rgb(87.058824%,89.019608%,91.764706%);fill-opacity:1;" d="M 4.164062 0 C 2.058594 0 0.3125 1.570312 0.0390625 3.601562 L 19.960938 3.601562 C 19.6875 1.570312 17.941406 0 15.835938 0 Z M 0 4.398438 L 0 15.835938 C 0 18.132812 1.867188 20 4.164062 20 L 15.835938 20 C 18.132812 20 20 18.132812 20 15.835938 L 20 4.398438 Z M 7.425781 6.398438 L 10.386719 6.398438 L 9.460938 6.886719 L 8.574219 6.886719 C 8.90625 7.214844 9.601562 7.78125 9.601562 8.898438 C 9.601562 9.984375 8.992188 10.515625 8.386719 11 C 8.199219 11.191406 7.976562 11.402344 7.976562 11.726562 C 7.976562 12.046875 8.203125 12.234375 8.363281 12.363281 L 8.875 12.773438 C 9.507812 13.316406 10.085938 13.8125 10.085938 14.824219 C 10.085938 16.203125 8.769531 17.601562 6.289062 17.601562 C 4.195312 17.601562 3.1875 16.585938 3.1875 15.5 C 3.1875 14.972656 3.445312 14.226562 4.300781 13.710938 C 5.191406 13.15625 6.410156 13.082031 7.0625 13.039062 C 6.859375 12.773438 6.625 12.496094 6.625 12.039062 C 6.625 11.792969 6.703125 11.640625 6.773438 11.460938 C 6.613281 11.476562 6.457031 11.488281 6.3125 11.488281 C 4.78125 11.488281 3.914062 10.332031 3.914062 9.1875 C 3.914062 8.511719 4.214844 7.75 4.835938 7.210938 C 5.65625 6.519531 6.648438 6.398438 7.425781 6.398438 Z M 6.511719 6.898438 C 6.136719 6.898438 5.734375 7.089844 5.5 7.386719 C 5.253906 7.691406 5.175781 8.082031 5.175781 8.460938 C 5.175781 9.445312 5.75 11.074219 6.988281 11.074219 C 7.351562 11.074219 7.742188 10.898438 7.976562 10.664062 C 8.304688 10.324219 8.324219 9.859375 8.324219 9.601562 C 8.324219 8.539062 7.710938 6.898438 6.511719 6.898438 Z M 13.601562 9.601562 L 15.199219 9.601562 L 15.199219 11.601562 L 17.199219 11.601562 L 17.199219 13.199219 L 15.199219 13.199219 L 15.199219 15.199219 L 13.601562 15.199219 L 13.601562 13.199219 L 11.601562 13.199219 L 11.601562 11.601562 L 13.601562 11.601562 Z M 7.210938 13.449219 C 7.082031 13.449219 6.304688 13.46875 5.699219 13.675781 C 5.382812 13.792969 4.460938 14.144531 4.460938 15.1875 C 4.460938 16.230469 5.457031 16.988281 7 16.988281 C 8.386719 16.988281 9.125 16.308594 9.125 15.398438 C 9.125 14.652344 8.644531 14.253906 7.550781 13.460938 C 7.433594 13.449219 7.359375 13.449219 7.210938 13.449219 Z M 7.210938 13.449219 "/>
</g>
</svg>
