<?xml version="1.0" standalone="no"?>
<!DOCTYPE svg PUBLIC "-//W3C//DTD SVG 20010904//EN"
 "http://www.w3.org/TR/2001/REC-SVG-20010904/DTD/svg10.dtd">
<svg version="1.0" xmlns="http://www.w3.org/2000/svg"
 width="1024.000000pt" height="32.000000pt" viewBox="0 0 1024.000000 32.000000"
 preserveAspectRatio="xMidYMid meet">

<g transform="translate(0.000000,32.000000) scale(0.100000,-0.100000)"
fill="#000000" stroke="none">
<path d="M122 212 c-29 -24 -32 -32 -32 -79 0 -52 0 -53 30 -53 20 0 30 5 30
15 0 8 5 15 10 15 6 0 10 -7 10 -15 0 -10 10 -15 30 -15 30 0 30 1 30 54 0 51
-3 57 -33 80 -19 15 -36 26 -38 26 -2 0 -19 -13 -37 -28z"/>
</g>
</svg>
