<?xml version="1.0" standalone="no"?>
<!DOCTYPE svg PUBLIC "-//W3C//DTD SVG 20010904//EN"
 "http://www.w3.org/TR/2001/REC-SVG-20010904/DTD/svg10.dtd">
<svg version="1.0" xmlns="http://www.w3.org/2000/svg"
 width="1024.000000pt" height="36.000000pt" viewBox="0 0 1024.000000 36.000000"
 preserveAspectRatio="xMidYMid meet">

<g transform="translate(0.000000,36.000000) scale(0.100000,-0.100000)"
fill="#000000" stroke="none">
<path d="M131 266 c-88 -49 -50 -187 52 -186 28 1 73 25 60 33 -5 3 -15 2 -23
-4 -48 -29 -120 13 -120 71 0 58 72 100 120 71 8 -6 18 -7 23 -4 14 8 -33 32
-63 32 -14 0 -36 -6 -49 -13z"/>
<path d="M230 205 c11 -13 6 -15 -34 -15 -25 0 -46 -4 -46 -10 0 -5 21 -10 46
-10 40 0 45 -2 34 -15 -20 -24 5 -17 28 8 22 23 22 24 4 40 -24 22 -50 24 -32
2z"/>
</g>
</svg>
