<?xml version="1.0" standalone="no"?>
<!DOCTYPE svg PUBLIC "-//W3C//DTD SVG 20010904//EN"
 "http://www.w3.org/TR/2001/REC-SVG-20010904/DTD/svg10.dtd">
<svg version="1.0" xmlns="http://www.w3.org/2000/svg"
 width="1024.000000pt" height="36.000000pt" viewBox="0 0 1024.000000 36.000000"
 preserveAspectRatio="xMidYMid meet">

<g transform="translate(0.000000,36.000000) scale(0.100000,-0.100000)"
fill="#000000" stroke="none">
<path d="M109 251 c-20 -20 -29 -39 -29 -61 0 -61 81 -111 130 -80 10 6 21 3
37 -12 30 -28 43 -15 15 15 -15 16 -18 27 -12 37 31 49 -19 130 -80 130 -22 0
-41 -9 -61 -29z m106 -16 c14 -13 25 -33 25 -45 0 -27 -43 -70 -70 -70 -27 0
-70 43 -70 70 0 12 11 32 25 45 13 14 34 25 45 25 12 0 32 -11 45 -25z"/>
</g>
</svg>
